<?xml version="1.0" encoding="iso-8859-1"?>
<!-- Generator: Adobe Illustrator 19.0.0, SVG Export Plug-In . SVG Version: 6.00 Build 0)  -->
<svg version="1.1" id="Capa_1" xmlns="http://www.w3.org/2000/svg" xmlns:xlink="http://www.w3.org/1999/xlink" x="0px" y="0px"
	 viewBox="0 0 512 512" style="enable-background:new 0 0 512 512;" xml:space="preserve">
<g>
	<g>
		<path d="M502.019,0.605L114.401,0.201c-0.004,0-0.007,0-0.011,0c-0.359,0-0.714,0.021-1.063,0.058
			c-1.134-0.035-2.269-0.058-3.411-0.058C49.309,0.201,0.002,49.508,0.002,110.114c0,0.209,0.003,0.418,0.006,0.626
			C0.003,110.873,0,111.004,0,111.137v390.67c0,5.519,4.473,9.992,9.992,9.992h199.842c5.518,0,9.992-4.473,9.992-9.992v-126.17
			l89.451,89.451c1.951,1.951,4.508,2.927,7.065,2.927c2.558,0,5.114-0.975,7.065-2.927l141.311-141.31
			c3.902-3.902,3.902-10.229,0-14.132l-89.216-89.216h126.504c5.518,0,9.992-4.473,9.992-9.992V10.596
			C512,5.081,507.534,0.61,502.019,0.605z M199.842,111.619v380.196H19.984V111.659c0.01-0.192,0.015-0.385,0.014-0.579
			l-0.012-0.966c0-49.587,40.342-89.929,89.929-89.929c24.841,0,47.361,10.126,63.653,26.466c0.24,0.305,0.495,0.601,0.775,0.881
			l1.602,1.602c14.824,16.039,23.897,37.468,23.897,60.98l-0.011,0.907C199.828,111.222,199.832,111.421,199.842,111.619z
			 M443.523,316.713L316.344,443.892l-94.093-94.093c-0.733-0.733-1.553-1.329-2.425-1.787V111.137c0-0.115-0.002-0.229-0.006-0.343
			c0.003-0.227,0.006-0.453,0.006-0.679c0-6.372-0.552-12.618-1.598-18.696L443.523,316.713z M492.017,200.447h-0.001H355.52
			L190.108,35.034c-5.138-5.485-10.827-10.445-16.984-14.788l318.892,0.332V200.447z"/>
	</g>
</g>
<g>
	<g>
		<path d="M109.915,55.946c-29.87,0-54.17,24.3-54.17,54.168c0,29.868,24.3,54.168,54.17,54.168c29.868,0,54.168-24.3,54.168-54.168
			C164.083,80.246,139.783,55.946,109.915,55.946z M109.915,144.298c-18.85,0-34.186-15.335-34.186-34.184
			S91.065,75.93,109.915,75.93c18.849,0,34.184,15.335,34.184,34.184S128.764,144.298,109.915,144.298z"/>
	</g>
</g>
<g>
	<g>
		<path d="M54.217,380.37h-0.475c-5.518,0-9.992,4.473-9.992,9.992c0,5.519,4.474,9.992,9.992,9.992h0.475
			c5.519,0,9.992-4.474,9.992-9.992C64.209,384.843,59.736,380.37,54.217,380.37z"/>
	</g>
</g>
<g>
	<g>
		<path d="M124.683,380.37H83.278c-5.518,0-9.992,4.473-9.992,9.992c0,5.519,4.474,9.992,9.992,9.992h41.404
			c5.518,0,9.992-4.474,9.992-9.992C134.675,384.843,130.201,380.37,124.683,380.37z"/>
	</g>
</g>
<g>
	<g>
		<path d="M153.972,421.039H53.743c-5.518,0-9.992,4.473-9.992,9.992s4.474,9.992,9.992,9.992h100.23
			c5.519,0,9.992-4.473,9.992-9.992S159.49,421.039,153.972,421.039z"/>
	</g>
</g>
<g>
	<g>
		<path d="M403.03,151.089c-5.518,0-9.992,4.474-9.992,9.992v0.475c0,5.519,4.474,9.992,9.992,9.992
			c5.518,0,9.992-4.473,9.992-9.992v-0.475C413.022,155.562,408.548,151.089,403.03,151.089z"/>
	</g>
</g>
<g>
	<g>
		<path d="M403.03,80.622c-5.518,0-9.992,4.473-9.992,9.992v41.405c0,5.518,4.474,9.991,9.992,9.991
			c5.518,0,9.992-4.473,9.992-9.992V90.615C413.022,85.096,408.548,80.622,403.03,80.622z"/>
	</g>
</g>
<g>
	<g>
		<path d="M443.699,51.334c-5.519,0-9.992,4.473-9.992,9.992v100.23c0,5.519,4.473,9.992,9.992,9.992
			c5.518,0,9.992-4.473,9.992-9.992V61.326C453.691,55.807,449.217,51.334,443.699,51.334z"/>
	</g>
</g>
<g>
	<g>
		<path d="M279.7,334.781c-3.903-3.902-10.228-3.902-14.132,0l-0.336,0.336c-3.902,3.902-3.902,10.229,0,14.131
			c1.951,1.951,4.508,2.927,7.066,2.927s5.114-0.976,7.065-2.927l0.336-0.336C283.602,345.01,283.602,338.683,279.7,334.781z"/>
	</g>
</g>
<g>
	<g>
		<path d="M329.528,284.954c-3.903-3.902-10.228-3.902-14.132,0l-29.278,29.278c-3.902,3.902-3.902,10.229,0,14.131
			c1.952,1.95,4.508,2.927,7.066,2.927s5.114-0.975,7.065-2.927l29.278-29.278C333.43,295.183,333.43,288.856,329.528,284.954z"/>
	</g>
</g>
<g>
	<g>
		<path d="M378.995,293.001c-3.902-3.903-10.227-3.902-14.132,0l-70.874,70.873c-3.902,3.902-3.902,10.228,0.001,14.131
			c1.951,1.951,4.508,2.927,7.065,2.927s5.114-0.976,7.065-2.927l70.874-70.873C382.897,303.23,382.897,296.904,378.995,293.001z"/>
	</g>
</g>
<g>
</g>
<g>
</g>
<g>
</g>
<g>
</g>
<g>
</g>
<g>
</g>
<g>
</g>
<g>
</g>
<g>
</g>
<g>
</g>
<g>
</g>
<g>
</g>
<g>
</g>
<g>
</g>
<g>
</g>
</svg>
