<?xml version="1.0" encoding="iso-8859-1"?>
<!-- Generator: Adobe Illustrator 19.0.0, SVG Export Plug-In . SVG Version: 6.00 Build 0)  -->
<svg version="1.1" id="Layer_1" xmlns="http://www.w3.org/2000/svg" xmlns:xlink="http://www.w3.org/1999/xlink" x="0px" y="0px"
	 viewBox="0 0 512 512" style="enable-background:new 0 0 512 512;" xml:space="preserve">
<g transform="translate(1 1)">
	<g>
		<g>
			<path d="M483.693,70.68l-51.2-68.267c-3.413-4.267-10.24-4.267-13.653,0l-51.2,68.267c-0.853,1.707-1.707,3.413-1.707,5.12
				v68.267h-51.2V75.8c0-1.707-0.853-3.413-1.707-5.12l-51.2-68.267C260.12-0.147,257.56-1,255-1c-2.56,0-5.12,0.853-6.827,3.413
				l-51.2,68.267c-0.853,1.707-1.707,3.413-1.707,5.12v68.267h-51.2V75.8c0-1.707-0.853-3.413-1.707-5.12L91.16,2.413
				c-3.413-4.267-10.24-4.267-13.653,0l-51.2,68.267c-0.853,1.707-1.707,3.413-1.707,5.12v409.6c0,14.507,11.093,25.6,25.6,25.6
				h68.267c14.507,0,25.6-11.093,25.6-25.6v-42.667h51.2V485.4c0,14.507,11.093,25.6,25.6,25.6h68.267
				c14.507,0,25.6-11.093,25.6-25.6v-42.667h51.2V485.4c0,14.507,11.093,25.6,25.6,25.6H459.8c14.507,0,25.6-11.093,25.6-25.6V75.8
				C485.4,74.093,484.547,72.387,483.693,70.68z M314.733,212.333h51.2v162.133h-51.2V212.333z M365.933,161.133v34.133h-51.2
				v-34.133H365.933z M144.067,212.333h51.2v162.133h-51.2V212.333z M195.267,161.133v34.133h-51.2v-34.133H195.267z M127,485.4
				c0,4.267-3.413,8.533-8.533,8.533H50.2c-4.267,0-8.533-3.413-8.533-8.533V78.36l42.667-56.32L127,78.36v74.24v51.2V383v51.2
				V485.4z M144.067,425.667v-34.133h51.2v34.133H144.067z M297.667,485.4c0,4.267-3.413,8.533-8.533,8.533h-68.267
				c-4.267,0-8.533-3.413-8.533-8.533v-51.2V383V203.8v-51.2V78.36L255,21.187l42.667,57.173v74.24v51.2V383v51.2V485.4z
				 M314.733,425.667v-34.133h51.2v34.133H314.733z M468.333,485.4c0,4.267-3.413,8.533-8.533,8.533h-68.267
				c-4.267,0-8.533-3.413-8.533-8.533v-51.2V383V203.8v-51.2V78.36l42.667-57.173l42.667,57.173V485.4z"/>
			<path d="M84.333,169.667c-5.12,0-8.533,3.413-8.533,8.533s3.413,8.533,8.533,8.533s8.533-3.413,8.533-8.533
				S89.453,169.667,84.333,169.667z"/>
			<path d="M255,169.667c-5.12,0-8.533,3.413-8.533,8.533s3.413,8.533,8.533,8.533c5.12,0,8.533-3.413,8.533-8.533
				S260.12,169.667,255,169.667z"/>
			<path d="M417.133,178.2c0,5.12,3.413,8.533,8.533,8.533s8.533-3.413,8.533-8.533s-3.413-8.533-8.533-8.533
				S417.133,173.08,417.133,178.2z"/>
			<path d="M84.333,400.067c-5.12,0-8.533,3.413-8.533,8.533s3.413,8.533,8.533,8.533s8.533-3.413,8.533-8.533
				S89.453,400.067,84.333,400.067z"/>
			<path d="M255,400.067c-5.12,0-8.533,3.413-8.533,8.533s3.413,8.533,8.533,8.533c5.12,0,8.533-3.413,8.533-8.533
				S260.12,400.067,255,400.067z"/>
			<path d="M425.667,400.067c-5.12,0-8.533,3.413-8.533,8.533s3.413,8.533,8.533,8.533s8.533-3.413,8.533-8.533
				S430.787,400.067,425.667,400.067z"/>
		</g>
	</g>
</g>
<g>
</g>
<g>
</g>
<g>
</g>
<g>
</g>
<g>
</g>
<g>
</g>
<g>
</g>
<g>
</g>
<g>
</g>
<g>
</g>
<g>
</g>
<g>
</g>
<g>
</g>
<g>
</g>
<g>
</g>
</svg>
