<?xml version="1.0" encoding="iso-8859-1"?>
<!-- Generator: Adobe Illustrator 19.0.0, SVG Export Plug-In . SVG Version: 6.00 Build 0)  -->
<svg version="1.1" id="Capa_1" xmlns="http://www.w3.org/2000/svg" xmlns:xlink="http://www.w3.org/1999/xlink" x="0px" y="0px"
	 viewBox="0 0 490 490" style="enable-background:new 0 0 490 490;" xml:space="preserve">
<g>
	<path d="M331.552,112.802c0-29.393-23.831-53.221-53.228-53.221c-29.397,0-53.229,23.828-53.229,53.221
		s23.831,53.221,53.229,53.221C307.721,166.022,331.552,142.195,331.552,112.802z M278.324,145.051
		c-17.813,0-32.254-14.439-32.254-32.25c0-17.811,14.441-32.25,32.254-32.25c17.813,0,32.254,14.438,32.254,32.25
		C310.578,130.613,296.137,145.051,278.324,145.051z"/>
	<path d="M377.181,158.426c-29.397,0-53.229,23.827-53.229,53.221s23.831,53.221,53.229,53.221
		c29.397,0,53.228-23.828,53.228-53.221S406.578,158.426,377.181,158.426z M377.181,243.896c-17.813,0-32.254-14.439-32.254-32.249
		c0-17.811,14.441-32.25,32.254-32.25c17.814,0,32.254,14.438,32.254,32.25C409.435,229.457,394.995,243.896,377.181,243.896z"/>
	<path d="M349.449,307.59c-29.397,0-53.228,23.828-53.228,53.22c0,29.393,23.831,53.221,53.228,53.221
		c29.397,0,53.228-23.828,53.228-53.221C402.677,331.417,378.846,307.59,349.449,307.59z M349.449,393.06
		c-17.813,0-32.254-14.439-32.254-32.25c0-17.811,14.441-32.249,32.254-32.249c17.814,0,32.254,14.438,32.254,32.249
		C381.703,378.621,367.263,393.06,349.449,393.06z"/>
	<path d="M415.723,74.261C367.829,26.375,304.147,0,236.412,0C168.682,0,105,26.375,57.1,74.261
		c-19.754,19.747-36,42.415-48.296,67.379c-12.876,26.125-11.563,56.883,3.508,82.274c15.574,26.247,42.986,42.669,73.33,43.943
		l68.544,2.87c35.009,1.467,63.586,30.035,65.052,65.038l2.872,68.53c1.975,47.25,41.678,85.695,88.502,85.705
		c0.005,0,0.01,0,0.01,0c13.074,0,25.767-2.984,37.717-8.868c24.967-12.309,47.634-28.559,67.384-48.299
		C463.622,384.95,490,321.277,490,253.552C490,185.827,463.622,122.154,415.723,74.261z M400.978,418.09
		c-18.131,18.123-38.944,33.048-61.854,44.329c-9.058,4.469-18.65,6.729-28.501,6.729h-0.005
		c-35.802-0.01-66.156-29.495-67.675-65.73l-2.87-68.53c-1.914-45.744-39.26-83.078-85.016-84.992l-68.539-2.871
		c-23.272-0.977-44.31-13.592-56.275-33.75c-11.628-19.599-12.626-42.343-2.734-62.432c11.287-22.897,26.2-43.708,44.336-61.84
		c43.963-43.948,102.407-68.153,164.567-68.153c62.165,0,120.609,24.205,164.567,68.153
		c43.958,43.962,68.168,102.392,68.168,164.548C469.146,315.708,444.937,374.138,400.978,418.09z"/>
	<path d="M129.132,87.307c-29.397,0-53.228,23.827-53.228,53.221s23.831,53.22,53.228,53.22s53.228-23.827,53.228-53.22
		S158.529,87.307,129.132,87.307z M129.132,172.777c-17.813,0-32.254-14.438-32.254-32.25s14.441-32.25,32.254-32.25
		c17.814,0,32.254,14.438,32.254,32.25S146.946,172.777,129.132,172.777z"/>
</g>
<g>
</g>
<g>
</g>
<g>
</g>
<g>
</g>
<g>
</g>
<g>
</g>
<g>
</g>
<g>
</g>
<g>
</g>
<g>
</g>
<g>
</g>
<g>
</g>
<g>
</g>
<g>
</g>
<g>
</g>
</svg>
