<?xml version="1.0" encoding="iso-8859-1"?>
<!-- Generator: Adobe Illustrator 19.0.0, SVG Export Plug-In . SVG Version: 6.00 Build 0)  -->
<svg version="1.1" id="Layer_1" xmlns="http://www.w3.org/2000/svg" xmlns:xlink="http://www.w3.org/1999/xlink" x="0px" y="0px"
	 viewBox="0 0 512 512" style="enable-background:new 0 0 512 512;" xml:space="preserve">
<g transform="translate(1 1)">
	<g>
		<g>
			<path d="M481.133,203.8c16.213,0,29.867-13.653,29.867-29.867s-13.653-29.867-29.867-29.867h-4.267V50.2h8.533
				c14.507,0,25.6-11.093,25.6-25.6C511,10.093,499.907-1,485.4-1H24.6C10.093-1-1,10.093-1,24.6c0,14.507,11.093,25.6,25.6,25.6
				h8.533v93.867h-4.267C12.653,144.067-1,157.72-1,173.933S12.653,203.8,28.867,203.8h4.267v102.4h-4.267
				C12.653,306.2-1,319.853-1,336.067c0,16.213,13.653,29.867,29.867,29.867h4.267v136.533c0,5.12,3.413,8.533,8.533,8.533h170.667
				h85.333h170.667c5.12,0,8.533-3.413,8.533-8.533V365.933h4.267c16.213,0,29.867-13.653,29.867-29.867
				c0-16.213-13.653-29.867-29.867-29.867h-4.267V203.8H481.133z M16.067,24.6c0-5.12,3.413-8.533,8.533-8.533h460.8
				c5.12,0,8.533,3.413,8.533,8.533s-3.413,8.533-8.533,8.533h-17.067H41.667H24.6C19.48,33.133,16.067,29.72,16.067,24.6z
				 M50.2,50.2h409.6v93.867h-25.6V127c0-28.16-23.04-51.2-51.2-51.2c-28.16,0-51.2,23.04-51.2,51.2v17.067h-25.6V127
				c0-28.16-23.04-51.2-51.2-51.2c-28.16,0-51.2,23.04-51.2,51.2v17.067h-25.6V127c0-28.16-23.04-51.2-51.2-51.2
				S75.8,98.84,75.8,127v17.067H50.2V50.2z M417.133,144.067h-68.267V127c0-18.773,15.36-34.133,34.133-34.133
				c18.773,0,34.133,15.36,34.133,34.133V144.067z M289.133,144.067h-68.267V127c0-18.773,15.36-34.133,34.133-34.133
				c18.773,0,34.133,15.36,34.133,34.133V144.067z M161.133,144.067H92.867V127c0-18.773,15.36-34.133,34.133-34.133
				c18.773,0,34.133,15.36,34.133,34.133V144.067z M16.067,173.933c0-6.827,5.973-12.8,12.8-12.8h12.8h42.667h85.333h42.667h85.333
				h42.667h85.333h42.667h12.8c6.827,0,12.8,5.973,12.8,12.8s-5.973,12.8-12.8,12.8h-12.8H41.667h-12.8
				C22.04,186.733,16.067,180.76,16.067,173.933z M220.867,493.933V408.6h68.267v85.333H220.867z M459.8,493.933H306.2v-93.867
				c0-5.12-3.413-8.533-8.533-8.533h-85.333c-5.12,0-8.533,3.413-8.533,8.533v93.867H50.2v-128h409.6V493.933z M493.933,336.067
				c0,6.827-5.973,12.8-12.8,12.8h-12.8H41.667h-12.8c-6.827,0-12.8-5.973-12.8-12.8s5.973-12.8,12.8-12.8h12.8h42.667h85.333
				h42.667h85.333h42.667h85.333h42.667h12.8C487.96,323.267,493.933,329.24,493.933,336.067z M161.133,306.2H92.867v-17.067
				C92.867,270.36,108.227,255,127,255c18.773,0,34.133,15.36,34.133,34.133V306.2z M289.133,306.2h-68.267v-17.067
				C220.867,270.36,236.227,255,255,255c18.773,0,34.133,15.36,34.133,34.133V306.2z M417.133,306.2h-68.267v-17.067
				C348.867,270.36,364.227,255,383,255c18.773,0,34.133,15.36,34.133,34.133V306.2z M459.8,306.2h-25.6v-17.067
				c0-28.16-23.04-51.2-51.2-51.2c-28.16,0-51.2,23.04-51.2,51.2V306.2h-25.6v-17.067c0-28.16-23.04-51.2-51.2-51.2
				c-28.16,0-51.2,23.04-51.2,51.2V306.2h-25.6v-17.067c0-28.16-23.04-51.2-51.2-51.2s-51.2,23.04-51.2,51.2V306.2H50.2V203.8h409.6
				V306.2z"/>
			<path d="M84.333,459.8h85.333c5.12,0,8.533-3.413,8.533-8.533v-51.2c0-5.12-3.413-8.533-8.533-8.533H84.333
				c-5.12,0-8.533,3.413-8.533,8.533v51.2C75.8,456.387,79.213,459.8,84.333,459.8z M92.867,408.6h68.267v34.133H92.867V408.6z"/>
			<path d="M340.333,459.8h85.333c5.12,0,8.533-3.413,8.533-8.533v-51.2c0-5.12-3.413-8.533-8.533-8.533h-85.333
				c-5.12,0-8.533,3.413-8.533,8.533v51.2C331.8,456.387,335.213,459.8,340.333,459.8z M348.867,408.6h68.267v34.133h-68.267V408.6z
				"/>
		</g>
	</g>
</g>
<g>
</g>
<g>
</g>
<g>
</g>
<g>
</g>
<g>
</g>
<g>
</g>
<g>
</g>
<g>
</g>
<g>
</g>
<g>
</g>
<g>
</g>
<g>
</g>
<g>
</g>
<g>
</g>
<g>
</g>
</svg>
