<svg aria-hidden="true" style="position: absolute; width: 0; height: 0; overflow: hidden;" version="1.1" xmlns="http://www.w3.org/2000/svg" xmlns:xlink="http://www.w3.org/1999/xlink">
<defs>
<symbol id="icon-cabinet" viewBox="0 0 32 32">
<title>cabinet</title>
<path d="M5 30v-24l4.167-4h12.667l4.166 4v24h-21zM25 22v-15h-19v22h19v-7zM24 14h-17v-6h17v6zM18 10h-5v1h5v-1zM24 21h-17v-6h17v6zM18 17h-5v1h5v-1zM24 28h-17v-6h17v6zM18 24h-5v1h5v-1z"></path>
</symbol>
<symbol id="icon-color-palette" viewBox="0 0 20 20">
<title>color-palette</title>
<path d="M9 20v-1.7l0.010-0.24 6.060-6.060h2.94c1.1 0 1.99 0.89 1.99 2v4c0 1.105-0.895 2-2 2v0h-9zM9 16.66v-11.32l2.080-2.070c0.36-0.362 0.859-0.586 1.41-0.586s1.050 0.224 1.41 0.586l2.83 2.83c0.359 0.362 0.582 0.86 0.582 1.41s-0.222 1.048-0.582 1.41l0-0-7.73 7.74zM0 1.99c0-1.090 0.89-1.99 2-1.99h4c1.105 0 2 0.895 2 2v0 16c0 1.105-0.895 2-2 2v0h-4c-1.105 0-2-0.895-2-2v0-16zM4 17c0.552 0 1-0.448 1-1s-0.448-1-1-1v0c-0.552 0-1 0.448-1 1s0.448 1 1 1v0z"></path>
</symbol>
<symbol id="icon-voicemail" viewBox="0 0 20 20">
<title>voicemail</title>
<path d="M15.4 5.801c-2.541 0-4.601 2.059-4.601 4.6 0 0.965 0.298 1.859 0.806 2.6h-3.211c0.508-0.74 0.805-1.635 0.805-2.6 0-2.541-2.059-4.6-4.6-4.6s-4.6 2.059-4.6 4.6c0.001 2.54 2.060 4.599 4.601 4.599h10.8c2.54 0 4.6-2.059 4.6-4.6s-2.060-4.599-4.6-4.599zM2 10.4c0-1.436 1.164-2.6 2.6-2.6s2.6 1.164 2.6 2.6c0 1.436-1.164 2.6-2.6 2.6s-2.6-1.164-2.6-2.6zM15.4 13c-1.437 0-2.601-1.164-2.601-2.6s1.164-2.6 2.601-2.6c1.435 0 2.6 1.164 2.6 2.6s-1.164 2.6-2.6 2.6z"></path>
</symbol>
<symbol id="icon-home" viewBox="0 0 32 32">
<title>home</title>
<path d="M32 18.451l-16-12.42-16 12.42v-5.064l16-12.42 16 12.42zM28 18v12h-8v-8h-8v8h-8v-12l12-9z"></path>
</symbol>
<symbol id="icon-office" viewBox="0 0 32 32">
<title>office</title>
<path d="M0 32h16v-32h-16v32zM10 4h4v4h-4v-4zM10 12h4v4h-4v-4zM10 20h4v4h-4v-4zM2 4h4v4h-4v-4zM2 12h4v4h-4v-4zM2 20h4v4h-4v-4zM18 10h14v2h-14zM18 32h4v-8h6v8h4v-18h-14z"></path>
</symbol>
<symbol id="icon-eyedropper" viewBox="0 0 32 32">
<title>eyedropper</title>
<path d="M30.828 1.172c-1.562-1.562-4.095-1.562-5.657 0l-5.379 5.379-3.793-3.793-4.243 4.243 3.326 3.326-14.754 14.754c-0.252 0.252-0.358 0.592-0.322 0.921h-0.008v5c0 0.552 0.448 1 1 1h5c0 0 0.083 0 0.125 0 0.288 0 0.576-0.11 0.795-0.329l14.754-14.754 3.326 3.326 4.243-4.243-3.793-3.793 5.379-5.379c1.562-1.562 1.562-4.095 0-5.657zM5.409 30h-3.409v-3.409l14.674-14.674 3.409 3.409-14.674 14.674z"></path>
</symbol>
<symbol id="icon-paint-format" viewBox="0 0 32 32">
<title>paint-format</title>
<path d="M32 18v-12h-6v-2c0-1.1-0.9-2-2-2h-22c-1.1 0-2 0.9-2 2v6c0 1.1 0.9 2 2 2h22c1.1 0 2-0.9 2-2v-2h4v8h-18v4h-1c-0.552 0-1 0.448-1 1v10c0 0.552 0.448 1 1 1h4c0.552 0 1-0.448 1-1v-10c0-0.552-0.448-1-1-1h-1v-2h18zM24 6h-22v-2h22v2z"></path>
</symbol>
<symbol id="icon-phone" viewBox="0 0 32 32">
<title>phone</title>
<path d="M22 20c-2 2-2 4-4 4s-4-2-6-4-4-4-4-6 2-2 4-4-4-8-6-8-6 6-6 6c0 4 4.109 12.109 8 16s12 8 16 8c0 0 6-4 6-6s-6-8-8-6z"></path>
</symbol>
<symbol id="icon-envelop" viewBox="0 0 32 32">
<title>envelop</title>
<path d="M29 4h-26c-1.65 0-3 1.35-3 3v20c0 1.65 1.35 3 3 3h26c1.65 0 3-1.35 3-3v-20c0-1.65-1.35-3-3-3zM12.461 17.199l-8.461 6.59v-15.676l8.461 9.086zM5.512 8h20.976l-10.488 7.875-10.488-7.875zM12.79 17.553l3.21 3.447 3.21-3.447 6.58 8.447h-19.579l6.58-8.447zM19.539 17.199l8.461-9.086v15.676l-8.461-6.59z"></path>
</symbol>
<symbol id="icon-location" viewBox="0 0 32 32">
<title>location</title>
<path d="M16 0c-5.523 0-10 4.477-10 10 0 10 10 22 10 22s10-12 10-22c0-5.523-4.477-10-10-10zM16 16c-3.314 0-6-2.686-6-6s2.686-6 6-6 6 2.686 6 6-2.686 6-6 6z"></path>
</symbol>
<symbol id="icon-user" viewBox="0 0 32 32">
<title>user</title>
<path d="M18 22.082v-1.649c2.203-1.241 4-4.337 4-7.432 0-4.971 0-9-6-9s-6 4.029-6 9c0 3.096 1.797 6.191 4 7.432v1.649c-6.784 0.555-12 3.888-12 7.918h28c0-4.030-5.216-7.364-12-7.918z"></path>
</symbol>
<symbol id="icon-quotes-left" viewBox="0 0 32 32">
<title>quotes-left</title>
<path d="M7.031 14c3.866 0 7 3.134 7 7s-3.134 7-7 7-7-3.134-7-7l-0.031-1c0-7.732 6.268-14 14-14v4c-2.671 0-5.182 1.040-7.071 2.929-0.364 0.364-0.695 0.751-0.995 1.157 0.357-0.056 0.724-0.086 1.097-0.086zM25.031 14c3.866 0 7 3.134 7 7s-3.134 7-7 7-7-3.134-7-7l-0.031-1c0-7.732 6.268-14 14-14v4c-2.671 0-5.182 1.040-7.071 2.929-0.364 0.364-0.695 0.751-0.995 1.157 0.358-0.056 0.724-0.086 1.097-0.086z"></path>
</symbol>
<symbol id="icon-quotes-right" viewBox="0 0 32 32">
<title>quotes-right</title>
<path d="M25 20c-3.866 0-7-3.134-7-7s3.134-7 7-7 7 3.134 7 7l0.031 1c0 7.732-6.268 14-14 14v-4c2.671 0 5.182-1.040 7.071-2.929 0.364-0.364 0.695-0.75 0.995-1.157-0.357 0.056-0.724 0.086-1.097 0.086zM7 20c-3.866 0-7-3.134-7-7s3.134-7 7-7 7 3.134 7 7l0.031 1c0 7.732-6.268 14-14 14v-4c2.671 0 5.182-1.040 7.071-2.929 0.364-0.364 0.695-0.75 0.995-1.157-0.357 0.056-0.724 0.086-1.097 0.086z"></path>
</symbol>
<symbol id="icon-wrench" viewBox="0 0 32 32">
<title>wrench</title>
<path d="M31.342 25.559l-14.392-12.336c0.67-1.259 1.051-2.696 1.051-4.222 0-4.971-4.029-9-9-9-0.909 0-1.787 0.135-2.614 0.386l5.2 5.2c0.778 0.778 0.778 2.051 0 2.828l-3.172 3.172c-0.778 0.778-2.051 0.778-2.828 0l-5.2-5.2c-0.251 0.827-0.386 1.705-0.386 2.614 0 4.971 4.029 9 9 9 1.526 0 2.963-0.38 4.222-1.051l12.336 14.392c0.716 0.835 1.938 0.882 2.716 0.104l3.172-3.172c0.778-0.778 0.731-2-0.104-2.716z"></path>
</symbol>
<symbol id="icon-hammer" viewBox="0 0 32 32">
<title>hammer</title>
<path d="M31.562 25.905l-9.423-9.423c-0.583-0.583-1.538-0.583-2.121 0l-0.707 0.707-5.75-5.75 9.439-9.439h-10l-4.439 4.439-0.439-0.439h-2.121v2.121l0.439 0.439-6.439 6.439 5 5 6.439-6.439 5.75 5.75-0.707 0.707c-0.583 0.583-0.583 1.538 0 2.121l9.423 9.423c0.583 0.583 1.538 0.583 2.121 0l3.535-3.535c0.583-0.583 0.583-1.538 0-2.121z"></path>
</symbol>
<symbol id="icon-magic-wand" viewBox="0 0 32 32">
<title>magic-wand</title>
<path d="M8 6l-4-4h-2v2l4 4zM10 0h2v4h-2zM18 10h4v2h-4zM20 4v-2h-2l-4 4 2 2zM0 10h4v2h-4zM10 18h2v4h-2zM2 18v2h2l4-4-2-2zM31.563 27.563l-19.879-19.879c-0.583-0.583-1.538-0.583-2.121 0l-1.879 1.879c-0.583 0.583-0.583 1.538 0 2.121l19.879 19.879c0.583 0.583 1.538 0.583 2.121 0l1.879-1.879c0.583-0.583 0.583-1.538 0-2.121zM15 17l-6-6 2-2 6 6-2 2z"></path>
</symbol>
<symbol id="icon-clipboard" viewBox="0 0 32 32">
<title>clipboard</title>
<path d="M29 4h-9c0-2.209-1.791-4-4-4s-4 1.791-4 4h-9c-0.552 0-1 0.448-1 1v26c0 0.552 0.448 1 1 1h26c0.552 0 1-0.448 1-1v-26c0-0.552-0.448-1-1-1zM16 2c1.105 0 2 0.895 2 2s-0.895 2-2 2c-1.105 0-2-0.895-2-2s0.895-2 2-2zM28 30h-24v-24h4v3c0 0.552 0.448 1 1 1h14c0.552 0 1-0.448 1-1v-3h4v24z"></path>
<path d="M14 26.828l-6.414-7.414 1.828-1.828 4.586 3.586 8.586-7.586 1.829 1.828z"></path>
</symbol>
</defs>
</svg>
